<svg width="17" height="14" viewBox="0 0 17 14" fill="none" xmlns="http://www.w3.org/2000/svg">
<path d="M16.408 13.832V9.464C16.408 7.832 16.12 6.328 15.544 4.952C14.968 3.576 13.992 2.184 12.616 0.775997L10.12 2.744C11.144 3.8 11.864 4.776 12.28 5.672C12.696 6.568 12.904 7.528 12.904 8.552L14.392 7.16H9.688V13.832H16.408ZM6.856 13.832V9.464C6.856 7.832 6.568 6.328 5.992 4.952C5.416 3.576 4.44 2.184 3.064 0.775997L0.568 2.744C1.592 3.8 2.312 4.776 2.728 5.672C3.144 6.568 3.352 7.528 3.352 8.552L4.84 7.16H0.136V13.832H6.856Z" fill="#029837"/>
</svg>
